<svg width="23" height="24" fill="none" xmlns="http://www.w3.org/2000/svg"><path fill-rule="evenodd" clip-rule="evenodd" d="M17.876 2.716a2.676 2.676 0 0 1-.906 1.962 2.69 2.69 0 0 1-4.325-2.113c.017-.74.324-1.445.855-1.962A2.794 2.794 0 0 1 15.16 0a2.706 2.706 0 0 1 2.716 2.716ZM8.172 5.19c.027-.016.046-.028.046-.06l-.005-.002a7.258 7.258 0 0 1 5.134 1.056c.33.166.648.35.956.554a.383.383 0 0 1 .201.1h-.05a7.298 7.298 0 0 0-.051.05l-.05.051c1.073.703 2.41.87 3.622.452h.05c0-.031.02-.043.047-.06.016-.01.035-.021.054-.04a4.36 4.36 0 0 0 2.013-1.66.71.71 0 0 1 .153-.202c1.107-.855 2.968.403 2.012 1.66-.385.576-.841 1.1-1.358 1.56a6.366 6.366 0 0 1-6.087 1.258c-.905 1.56-1.76 3.12-2.616 4.728.353.201.705.403 1.007.604l-.1.1a31.56 31.56 0 0 1 2.364 1.763c.746.553 1.616 2.489 2.297 4.003.19.423.366.814.52 1.132a1.194 1.194 0 0 1-.202 1.456 1.393 1.393 0 0 1-2.113-.452c-.112-.244-.24-.53-.377-.84-.603-1.352-1.395-3.128-1.886-3.536a17.468 17.468 0 0 0-4.176-2.466.39.39 0 0 1-.098-.025c-.038-.012-.077-.025-.103-.025a6.826 6.826 0 0 1-8.704 1.66 1.402 1.402 0 1 1 1.508-2.364c2.315 1.308 4.679-.403 5.786-2.566a141.98 141.98 0 0 1 2.717-5.181c-1.71-.554-3.27-.052-4.527 1.71-.957 1.408-3.32.05-2.315-1.358.4-.564.855-1.086 1.358-1.56a6.309 6.309 0 0 1 2.919-1.408V5.23a.277.277 0 0 1 .054-.04Z" fill="#fff"/></svg>